<svg width="16" height="16" viewBox="0 0 16 16" fill="none" xmlns="http://www.w3.org/2000/svg">
<g clip-path="url(#clip0_82_3578)">
<path d="M8 16C5.93837 16 3.99356 15.725 2.52381 15.2257C0.437875 14.517 0 13.6092 0 12.9725C0 12.1419 0.742156 11.5599 1.36472 11.2179C1.59169 11.0932 1.87659 11.1761 2.00125 11.403C2.12591 11.6299 2.04303 11.9149 1.81613 12.0395C1.25775 12.3463 0.9375 12.6863 0.9375 12.9725C0.9375 13.3226 1.43344 13.8651 2.82541 14.338C4.20056 14.8052 6.03828 15.0625 8 15.0625C9.96172 15.0625 11.7994 14.8052 13.1746 14.338C14.5666 13.8651 15.0625 13.3226 15.0625 12.9725C15.0625 12.6863 14.7423 12.3463 14.1839 12.0395C13.957 11.9149 13.8741 11.6299 13.9987 11.403C14.1233 11.1761 14.4083 11.0932 14.6353 11.2178C15.2578 11.5599 16 12.1419 16 12.9725C16 13.6092 15.5621 14.517 13.4762 15.2257C12.0064 15.725 10.0616 16 8 16Z" fill="#A5A8B6"/>
<path d="M14.6353 11.2179C14.4083 11.0932 14.1233 11.1761 13.9988 11.403C13.8741 11.6299 13.957 11.9149 14.1839 12.0395C14.7423 12.3463 15.0625 12.6863 15.0625 12.9725C15.0625 13.3226 14.5666 13.8651 13.1746 14.338C11.7994 14.8052 9.96172 15.0625 8 15.0625C7.99997 15.0625 7.99991 15.0625 7.99988 15.0625V16C7.99991 16 7.99997 16 8 16C10.0616 16 12.0064 15.725 13.4762 15.2257C15.5621 14.517 16 13.6092 16 12.9725C16 12.1419 15.2578 11.5599 14.6353 11.2179Z" fill="#A5A8B6"/>
<path d="M7.99998 14.0772C6.66939 14.0772 5.41254 13.9292 4.46098 13.6603C3.29682 13.3315 2.70654 12.8554 2.70654 12.2455C2.70654 11.6355 3.29682 11.1595 4.46098 10.8307C5.41254 10.5618 6.66939 10.4138 7.99998 10.4138C9.33057 10.4138 10.5874 10.5618 11.539 10.8307C12.7031 11.1595 13.2934 11.6355 13.2934 12.2455C13.2934 12.8554 12.7031 13.3315 11.539 13.6603C10.5874 13.9291 9.33057 14.0772 7.99998 14.0772ZM3.65198 12.2454C3.71632 12.3399 4.02929 12.5856 4.88604 12.8038C5.73645 13.0204 6.84236 13.1397 7.99995 13.1397C9.15754 13.1397 10.2635 13.0204 11.1139 12.8038C11.9706 12.5856 12.2836 12.3399 12.3479 12.2454C12.2836 12.151 11.9706 11.9053 11.1139 11.6871C10.2634 11.4705 9.15757 11.3512 7.99995 11.3512C6.84232 11.3512 5.73645 11.4705 4.88604 11.6871C4.02932 11.9054 3.71636 12.151 3.65198 12.2454ZM12.3587 12.2648H12.359H12.3587Z" fill="#A5A8B6"/>
<path d="M11.539 10.8306C10.5874 10.5618 9.3306 10.4137 8 10.4137C7.99997 10.4137 7.99991 10.4137 7.99988 10.4137V11.3512C7.99991 11.3512 7.99997 11.3512 8 11.3512C9.15763 11.3512 10.2635 11.4705 11.1139 11.6871C11.9707 11.9053 12.2837 12.151 12.348 12.2454C12.2836 12.3399 11.9707 12.5856 11.1139 12.8038C10.2635 13.0204 9.15763 13.1397 8 13.1397C7.99997 13.1397 7.99991 13.1397 7.99988 13.1397V14.0772C7.99991 14.0772 7.99997 14.0772 8 14.0772C9.3306 14.0772 10.5874 13.9291 11.539 13.6603C12.7032 13.3314 13.2934 12.8554 13.2934 12.2454C13.2934 11.6355 12.7032 11.1595 11.539 10.8306Z" fill="#A5A8B6"/>
<path d="M7.99996 0C5.59721 0 3.64246 1.95475 3.64246 4.35747C3.64246 5.85406 5.46068 9.143 6.98596 11.6385C7.20364 11.9947 7.58271 12.2073 7.99996 12.2073C8.41724 12.2073 8.79627 11.9947 9.01396 11.6385C10.5393 9.143 12.3575 5.85406 12.3575 4.35747C12.3575 1.95475 10.4027 0 7.99996 0ZM7.99996 5.80972C7.03421 5.80972 6.24849 5.02403 6.24849 4.05828C6.24849 3.09256 7.03421 2.30687 7.99996 2.30687C8.96571 2.30687 9.75142 3.09256 9.75142 4.05828C9.75142 5.02406 8.96571 5.80972 7.99996 5.80972Z" fill="#EE3840"/>
<path d="M8 0C7.99997 0 7.99991 0 7.99988 0V2.30687C7.99991 2.30687 7.99997 2.30687 8 2.30687C8.96575 2.30687 9.75147 3.09256 9.75147 4.05828C9.75147 5.02403 8.96575 5.80972 8 5.80972C7.99997 5.80972 7.99991 5.80972 7.99988 5.80972V12.2073C7.99991 12.2073 7.99997 12.2073 8 12.2073C8.41728 12.2073 8.79632 11.9947 9.014 11.6385C10.5393 9.143 12.3575 5.85406 12.3575 4.35747C12.3575 1.95475 10.4028 0 8 0Z" fill="#EE3840"/>
</g>
<defs>
<clipPath id="clip0_82_3578">
<rect width="16" height="16" fill="white"/>
</clipPath>
</defs>
</svg>
